<svg xmlns="http://www.w3.org/2000/svg" viewBox="0 0 528.25 509.02"><defs><style>.cls-1{fill:#a82215;}.cls-2{fill:#fff;}</style></defs><title>Ресурс 25</title><g id="Слой_2" data-name="Слой 2"><g id="Слой_4" data-name="Слой 4"><path class="cls-1" d="M528.25,0H0V400.48s16.88,46.45,106.32,60.14c116.6,17.85,228.19-18.79,337.06-13.79,76.43,3.52,84.87,15.6,84.86,15.57"/><path class="cls-1" d="M21,457.52a96.82,96.82,0,0,0,12.33,9.38,123.8,123.8,0,0,0,13.39,7.6c4.61,2.25,9.28,4.32,14.06,6.13s9.64,3.39,14.53,4.84A224.45,224.45,0,0,0,105.16,492q3.78.57,7.57,1l7.65.85c2.54.31,5.1.51,7.65.74s5.1.5,7.66.63c10.23.74,20.48,1.12,30.73,1.25s20.52-.08,30.78-.45,20.53-1.06,30.81-1.81,20.53-1.76,30.82-2.76c41.1-4.12,82.39-9.7,124.19-11.53,10.45-.4,20.91-.63,31.37-.5,5.24.11,10.47.19,15.69.48s10.45.62,15.67,1,10.41,1,15.59,1.6c2.6.31,5.19.66,7.77,1s5.17.8,7.74,1.24c10.28,1.78,20.56,3.92,30.39,7.37-5.1-1.05-10.21-1.86-15.36-2.45s-10.29-1.1-15.45-1.46c-10.31-.67-20.63-1.1-31-1.11l-7.73.08c-2.58,0-5.16.08-7.73.15-5.15.11-10.31.39-15.45.6-10.29.59-20.57,1.33-30.84,2.3-41.08,3.82-82,10.34-123.53,14.59-10.38,1.1-20.79,1.95-31.22,2.71s-20.91,1.15-31.39,1.42-21,.09-31.49-.33c-2.62-.11-5.25-.28-7.87-.42l-3.93-.23-3.93-.31c-2.62-.23-5.24-.39-7.86-.66l-7.84-.85c-10.46-1.28-20.8-2.74-31.19-5a206,206,0,0,1-30.42-9A163.62,163.62,0,0,1,44.75,478,126,126,0,0,1,32,468.67,87.25,87.25,0,0,1,21,457.52Z"/><circle class="cls-2" cx="189.65" cy="244.63" r="10"/><path class="cls-2" d="M248,68.89l-7.53.1a85.94,85.94,0,0,0-33.42,7.33A104.16,104.16,0,0,0,189.8,85.8a104.16,104.16,0,0,0-17.29-9.48A86,86,0,0,0,139.09,69V81.34a73.49,73.49,0,0,1,28.55,6.34,90,90,0,0,1,11.76,6.11c-1.75,1.52-3.45,3.1-5.1,4.72-16,15.8-35,44.39-35,90.92,0,35.16,10.05,59.17,18.49,73.12,9.9,16.36,22.47,26.94,32,26.94s22.12-10.58,32-26.94c8.44-14,18.5-38,18.5-73.12,0-46.53-19-75.12-35-90.92-1.65-1.62-3.35-3.2-5.11-4.72A91.25,91.25,0,0,1,212,87.68c9.67-4.15,19.54-6.62,28.56-6.62H248V296.64H139.09v12.17H248v0h12.17v-240Zm-36.8,187.27c-9.68,16-19.1,21-21.44,21s-11.77-5-21.45-21a112.9,112.9,0,0,1-13.19-33.69h69.28A112.61,112.61,0,0,1,211.24,256.16ZM228,189.43a158.4,158.4,0,0,1-1.34,20.87H153a158.32,158.32,0,0,1-1.35-20.87c0-42.26,17.05-68,31.35-82.13q3.25-3.22,6.81-6.12c2.36,1.93,4.64,4,6.81,6.12C210.91,121.44,228,147.17,228,189.43Z"/><circle class="cls-2" cx="338.59" cy="244.63" r="10"/><path class="cls-2" d="M268,68.89v240H280.2v0h109V296.64h-109V81.06h7.54c9,0,18.89,2.47,28.55,6.62a90,90,0,0,1,11.76,6.11c-1.75,1.52-3.46,3.1-5.1,4.72-16,15.8-35,44.39-35,90.92,0,35.16,10.05,59.17,18.49,73.12,9.9,16.36,22.47,26.94,32,26.94s22.12-10.58,32-26.94c8.44-14,18.5-38,18.5-73.12,0-46.53-19-75.12-35-90.92-1.65-1.62-3.36-3.2-5.11-4.72a91.25,91.25,0,0,1,11.76-6.11,73.54,73.54,0,0,1,28.56-6.34V69a86,86,0,0,0-33.43,7.33,104.47,104.47,0,0,0-17.28,9.48,104.56,104.56,0,0,0-17.29-9.48A86,86,0,0,0,287.74,69l-7.54-.1ZM303.8,222.47h69.29a112.61,112.61,0,0,1-13.2,33.69c-9.68,16-19.1,21-21.44,21s-11.77-5-21.45-21A113.15,113.15,0,0,1,303.8,222.47ZM331.63,107.3q3.25-3.22,6.82-6.12c2.36,1.93,4.64,4,6.81,6.12,14.3,14.14,31.34,39.87,31.34,82.13a156.63,156.63,0,0,1-1.35,20.87H301.64a158.32,158.32,0,0,1-1.35-20.87C300.29,147.17,317.34,121.44,331.63,107.3Z"/><path class="cls-2" d="M142,369.49c0-13.46,9.45-19.81,24.45-19.81H171c15,0,24.46,6.35,24.46,19.81S186,389.61,171,389.61h-4.54C151.44,389.61,142,382.94,142,369.49ZM171.9,381c7.73,0,12.61-3.68,12.61-11.5s-4.88-11.19-12.61-11.19h-6.37c-7.73,0-12.62,3.36-12.62,11.19S157.8,381,165.53,381Zm-8.23-38.06h10.09v53.56H163.67Z"/><path class="cls-2" d="M214.21,343.88h14l16.22,51.66H232.05l-6.76-26.16c-1.43-5.17-2.81-11.28-4.19-16.67h-.32c-1.25,5.46-2.63,11.5-4.06,16.67l-6.79,26.16H198Zm-5.52,30.28h24.85v9.08H208.69Z"/><path class="cls-2" d="M250.6,395.47l2.1-10.12a10.09,10.09,0,0,0,3.9.61c2.26,0,4-.7,4.95-2.38l.77-1.55L244.8,343.88h12.36l6,15.08,4.3,12.35h.32L271.91,359l5.46-15.08h11.71l-15.95,39.94c-3.19,7.86-7.88,12.67-15.95,12.67A17.92,17.92,0,0,1,250.6,395.47Z"/><path class="cls-2" d="M295.53,343.88h11.68v19.91h17.84V343.88h11.68v51.66H325.05V374H307.21v21.57H295.53Z"/><path class="cls-2" d="M359.32,343.88h14l16.23,51.66H377.16l-6.76-26.16c-1.43-5.17-2.81-11.28-4.19-16.67h-.32c-1.25,5.46-2.63,11.5-4.06,16.67L355,395.54H343.1Zm-5.52,30.28h24.86v9.08H353.8Z"/></g></g></svg>